HIERARCHY
ROOT Hips
{
    OFFSET 12.42338752746582 83.18376159667969 -17.281179428100586
    CHANNELS 6 Xposition Yposition Zposition Zrotation Xrotation Yrotation
    JOINT RightUpLeg
    {
        OFFSET -12.42338752746582 0.0 0.0
        CHANNELS 3 Zrotation Xrotation Yrotation
        JOINT RightLeg
        {
            OFFSET 0.0 -39.980812072753906 0.0
            CHANNELS 3 Zrotation Xrotation Yrotation
            JOINT RightFoot
            {
                OFFSET 0.0 -43.20294952392578 0.0
                CHANNELS 3 Zrotation Xrotation Yrotation
                End Site
                {
                    OFFSET 0.0 0.0 17.281179428100586
                }
            }
        }
    }
    JOINT LeftUpLeg
    {
        OFFSET 12.42338752746582 0.0 0.0
        CHANNELS 3 Zrotation Xrotation Yrotation
        JOINT LeftLeg
        {
            OFFSET 0.0 -39.980812072753906 0.0
            CHANNELS 3 Zrotation Xrotation Yrotation
            JOINT LeftFoot
            {
                OFFSET 0.0 -43.20294952392578 0.0
                CHANNELS 3 Zrotation Xrotation Yrotation
                End Site
                {
                    OFFSET 0.0 0.0 17.281179428100586
                }
            }
        }
    }
    JOINT Spine
    {
        OFFSET 0.0 21.88168716430664 0.0
        CHANNELS 3 Zrotation Xrotation Yrotation
        JOINT Spine3
        {
            OFFSET 0.0 22.520803451538086 0.0
            CHANNELS 3 Zrotation Xrotation Yrotation
            JOINT Neck
            {
                OFFSET 0.0 9.148499488830566 0.0
                CHANNELS 3 Zrotation Xrotation Yrotation
                End Site
                {
                    OFFSET 0.0 3.65939998626709 0.0
                }
            }
            JOINT LeftArm
            {
                OFFSET 12.533914566040039 0.0 0.0
                CHANNELS 3 Zrotation Xrotation Yrotation
                JOINT LeftForeArm
                {
                    OFFSET 22.826427459716797 0.0 0.0
                    CHANNELS 3 Zrotation Xrotation Yrotation
                    JOINT LeftHand
                    {
                        OFFSET 17.572765350341797 0.0 0.0
                        CHANNELS 3 Zrotation Xrotation Yrotation
                        End Site
                        {
                            OFFSET 7.029106140136719 0.0 0.0
                        }
                    }
                }
            }
            JOINT RightArm
            {
                OFFSET -12.533914566040039 0.0 0.0
                CHANNELS 3 Zrotation Xrotation Yrotation
                JOINT RightForeArm
                {
                    OFFSET -22.826427459716797 0.0 0.0
                    CHANNELS 3 Zrotation Xrotation Yrotation
                    JOINT RightHand
                    {
                        OFFSET -17.572765350341797 0.0 0.0
                        CHANNELS 3 Zrotation Xrotation Yrotation
                        End Site
                        {
                            OFFSET -7.029106140136719 0.0 0.0
                        }
                    }
                }
            }
        }
    }
}
MOTION
Frames: 9
Frame Time: 0.03333333333333333
-2.9303737392183393e-05 60.70952606201172 -0.0007401977200061083 8.515252681867308 1.8424531031518132 74.26445862464749 10.30537717237754 -60.47023725688776 7.548943996533311 123.16951962713496 72.39630367452996 -128.76011060134394 2.7829853462805764e-15 -2.782985346280577e-15 -8.5477407064332e-15 -3.078988182003246 -55.168778440120455 -3.8601916119108215 160.76887184728923 88.08851875047733 -158.0973107255598 0.0 0.0 1.1927080055488192e-15 4.307167779684233 12.94402136726001 -0.5994437927822929 -4.6285053329697014e-07 -2.7800220955516355e-07 1.9976711596203145 -4.705920765821518 -7.588495732409649 -179.30685739317596 114.38198670697408 -29.773211425788798 -161.56264025409948 -8.42003664736813e-07 -4.705233379341857e-06 53.54848748728507 5.168401357378215e-15 -6.7586786981099735e-15 7.951386703658796e-16 -123.04628141891862 -1.5279151145948147 160.17396063303894 2.6188732691640016e-06 -6.56353707062015e-07 -80.7529409859864 -7.951386703658792e-16 6.3611093629270335e-15 4.4139062980501586e-32
5.645802048093174e-06 60.70949935913086 -0.0007308091735467315 8.527903077316463 1.98398307840462 74.41714095406309 9.818880278985027 -60.37527195838401 7.011274606841641 122.91705734866828 72.47920023569625 -128.20329351287035 3.9756933518293955e-16 -3.1805546814635168e-15 -1.5902773407317584e-15 -3.2131171597127275 -55.17388464186113 -4.070350998121302 151.86853085802545 88.21825881986791 -149.0529926347248 -1.5902773407317584e-15 1.3241718894150476e-31 -9.54166404439055e-15 4.08595989055127 12.88963949832929 -0.5205099082684753 -2.9703288446467272e-08 -4.693238938340529e-07 1.7146289009578815 -4.877245189870257 -7.608607539949766 -179.2686484930994 113.19810655925072 -28.604877604500132 -161.81649568389625 5.060788274954341e-07 5.331795443661775e-06 52.0676107271015 -5.565970692561154e-15 -5.9635400277440935e-15 3.1805546814635164e-15 -122.65592241871181 -1.0089167058554 160.13765511958096 -3.038878850500379e-06 -1.2592055220762735e-08 -79.9958630121411 -1.5902773407317584e-15 -6.3611093629270335e-15 7.951386703658791e-16
9.939526353264228e-05 60.709510803222656 -0.0007091268198564649 8.472786484641771 2.3628728787443922 74.19015647244485 9.248071894581289 -60.93819662191329 6.717449140528982 125.68034012652357 73.46984375826894 -130.59139178413736 1.5902773407317582e-15 2.7829853462805768e-15 -1.3914926731402884e-15 -3.1432952085810597 -55.29336810401145 -3.859880891070622 160.6270856540159 88.68915755161724 -157.96169440656243 -3.1805546814635168e-15 -7.951386703658792e-16 2.782985346280577e-15 3.80375532275466 12.77457783306875 -0.49608553086701335 7.292259588280289e-07 -4.5818471399486046e-07 1.712968404390959 -5.0024540982819214 -7.2651151196690975 -179.1831713677946 113.60351452663565 -28.196341215689564 -160.9347455736167 2.4785918080884635e-06 -2.4900593489018875e-07 52.533155665322454 7.951386703658794e-16 -5.9635400277440935e-15 3.975693351829396e-15 -122.60161423716855 -0.43591474194854035 159.93176161967855 1.210180979429799e-06 3.7845185860876825e-06 -79.83442054605224 1.5902773407317584e-15 0.0 0.0
7.336147973546758e-05 60.7094841003418 -0.0007229398470371962 8.437832546916418 2.302617498644489 74.06703771405314 9.459698527004305 -61.09284965894303 7.189409421643863 126.79531345527606 73.34493215977773 -131.96736875778257 -7.951386703658794e-16 -3.1805546814635168e-15 -9.14409470920761e-15 -2.9252619389234886 -55.189053482611605 -3.4177052007898303 147.3032236826126 88.32449113391908 -144.9400767199879 3.1805546814635164e-15 -1.1034765745125397e-32 -3.9756933518293955e-16 4.147932748372249 12.67449051835116 -0.6368831036689986 1.5850148726610714e-08 -1.7059462258958467e-07 2.0431534772600224 -5.826325638936062 -7.264966463270744 -178.97279517468866 113.63834767357548 -28.75780382685387 -160.86259789031405 4.005330527546407e-07 -3.0453736387442772e-06 51.78577152429402 1.5902773407317582e-15 3.975693351829396e-16 1.5902773407317582e-15 -122.01169875554595 -1.3221327229219249 159.89565229755723 -4.3121319871428644e-07 -4.881766216735059e-07 -79.0500626234336 -7.951386703658792e-16 0.0 0.0
8.032374898903072e-05 60.70945358276367 -0.00070372992195189 8.0406419622844 2.071039595351874 73.64183066442155 10.241378300499223 -61.57151695116831 7.79941538334506 127.74485386004955 73.6550223269275 -133.12471740778875 -7.951386703658796e-16 -3.1805546814635176e-15 -5.963540027744095e-15 -2.8987408167963693 -55.328564762122916 -3.50758116374669 130.3351889529544 88.5645938892777 -127.91974274516414 -2.2069531490250793e-32 7.951386703658792e-16 3.1805546814635168e-15 4.613490512787041 12.336892361403542 -0.6924052609496938 1.7039195645278335e-07 2.1542009717487327e-07 2.1801350395260526 -6.390752721811815 -7.394282720106028 -179.80665537616622 113.19003524809678 -28.132924115094063 -161.15854763808173 2.259121214254126e-06 -1.670867079385646e-06 51.939437767496415 -5.168401357378214e-15 -1.793149433582877e-31 3.975693351829395e-15 -121.18275876037504 -2.270033155606428 159.71078697427492 3.650885449027187e-06 2.3498694423097854e-06 -78.93642644937704 0.0 6.3611093629270335e-15 0.0
7.185954018495977e-05 60.70942306518555 -0.0007009837427176535 8.082781775461596 2.0277306545381584 73.51625185427692 9.651143948111374 -61.492396129520415 7.291250620319517 127.76147250505213 73.63649873084768 -132.8847069083543 -1.5902773407317588e-15 3.1805546814635168e-15 6.7586786981099735e-15 -3.2134315567007294 -55.30156320829847 -3.7482601726400295 126.66566040738802 88.25637178888228 -124.08542668751946 -3.1805546814635168e-15 3.1805546814635168e-15 1.987846675914698e-15 4.773653697013117 12.27276304599887 -0.7275546968055485 -2.790056777592798e-07 2.796620657188442e-07 2.403988194830658 -6.486076140385428 -7.158261951352313 179.61388695208842 112.97585738182067 -28.29280957615184 -161.54741717492223 1.5669464573474412e-07 -4.6641531211488086e-07 51.74303183139866 -2.3854160110976368e-15 -1.6552148617688095e-32 7.95138670365879e-16 -120.93545220849207 -2.173052771472217 160.10570244381645 -3.8810530926200246e-07 -2.265486744618769e-06 -79.17685706631825 0.0 0.0 7.951386703658792e-16
8.029883611015975e-05 60.709434509277344 -0.0007007492822594941 8.201455100077574 1.7247406560582934 73.49133289123583 9.52509161918454 -61.495999017832666 7.008573481214394 128.4112594374787 73.62774577912985 -133.3854320884352 3.1805546814635168e-15 3.578124016646457e-15 -9.14409470920761e-15 -3.5079902246561243 -55.10336771926066 -4.141081114770143 125.3127851987149 88.17316012207118 -122.44140853545237 0.0 0.0 0.0 4.941658313411354 12.446854521982518 -0.7320151811388541 6.135253500830969e-07 1.037367995935514e-06 2.520030853938562 -6.492545120807729 -6.75253055873094 179.46594964895633 112.31972882448451 -28.640722959160584 -161.88995230770033 1.9264814973093362e-06 -5.936701804577396e-06 51.49218043791583 -1.987846675914697e-15 6.361109362927033e-15 -3.1805546814635164e-15 -120.58606916527883 -2.1180962909603234 160.335370618757 -4.359591698104533e-06 -2.0789371728743822e-06 -79.31848192504623 -7.951386703658792e-16 6.3611093629270335e-15 4.4139062980501586e-32
8.992910443339497e-05 60.70940017700195 -0.0006686563137918711 8.434145081764074 1.5635968323548808 73.79339257858967 8.635837662521466 -61.06767011379876 6.200053750359738 127.14609146858496 73.59662893415687 -131.74327263729677 7.951386703658791e-16 -1.9310840053969444e-32 -2.7829853462805768e-15 -3.6298036821050963 -54.976927664835735 -4.2336231953574135 129.71599174705023 87.929025986371 -126.77113131753273 -1.590277340731758e-15 -7.95138670365879e-16 3.180554681463516e-15 4.835445796595878 12.49302883826503 -0.7119372904394835 3.75441561784334e-07 -4.5642237705686773e-07 2.6440429885609316 -6.323474084566302 -6.142875456359214 179.83933828072833 111.98468367075557 -27.88891955500117 -162.5033462788681 -1.259657688014749e-06 4.755791945720413e-07 50.16832825497076 5.963540027744094e-16 -4.138037154422024e-33 -7.951386703658792e-16 -120.27846501260309 -2.1155211370243556 160.95125034511418 3.323917968737436e-07 3.1758745306961727e-06 -78.50088779217656 0.0 0.0 -7.951386703658792e-16
7.34911736799404e-05 60.709442138671875 -0.0006884367321617901 8.521838718351539 1.3954392281628556 73.53123915970183 8.881131358225748 -60.93467215390886 6.394301317627863 128.25605305932882 73.53118542649949 -132.99423792283875 -7.951386703658792e-16 1.9310840053969444e-32 -2.782985346280577e-15 -3.155691284147911 -54.722096569031876 -3.8443943862674734 127.66909923772826 88.00145505636006 -124.96865397309745 -1.5902773407317584e-15 -1.1586504032381667e-31 8.348956038841732e-15 4.907304181734461 12.593137395524188 -0.7300471394354258 4.3602045757664285e-07 -2.1982273360820063e-07 2.743180420976961 -6.593450645584439 -5.969106042790902 -179.67157758285737 111.82057338774814 -27.66003000002679 -162.93176103711 4.4152630628514793e-07 1.957944840616285e-06 50.61763647496041 -2.782985346280577e-15 -6.3611093629270335e-15 -3.975693351829398e-16 -120.3011450247778 -3.0920910072929413 160.9076150824748 -5.17351905187928e-06 -3.4373580684960476e-07 -77.34282901633175 0.0 6.3611093629270335e-15 0.0
